<svg width="1268" height="135" viewBox="0 0 1268 135" fill="none" xmlns="http://www.w3.org/2000/svg">
<path d="M300.514 88.7166L315.837 96.3221L300.514 103.928L120.822 103.928C104.977 103.928 91.3952 94.0751 86.1716 80.074H85.9975H72.9384C72.9384 83.7039 69.9784 86.6424 66.3219 86.6424H20.5281C9.73267 86.6424 0.852539 77.9998 0.852539 67.11C0.852539 56.2203 9.55855 47.5777 20.5281 47.5777L66.3219 47.5777C69.9784 47.5777 72.9384 50.5162 72.9384 54.1461H85.9975H86.1716C91.3952 40.3179 104.977 30.2924 120.822 30.2924L300.514 30.2924L315.837 37.898L300.514 45.5035L120.822 45.5035C113.683 45.5035 107.414 48.9605 103.41 54.1461C100.624 57.776 99.0565 62.2702 99.0565 67.11C99.0565 71.9499 100.624 76.4441 103.41 80.074C107.414 85.2596 113.683 88.7166 120.822 88.7166L300.514 88.7166V88.7166Z" fill="#12181F"/>
<path d="M162.611 124.843C165.745 127.954 170.098 129.856 174.973 129.856C178.63 129.856 181.938 128.818 184.724 126.917V131.066C184.724 131.93 185.072 132.794 185.595 133.313C186.813 134.523 188.903 134.523 190.296 133.313L195.694 127.954C196.913 126.744 196.913 124.67 195.694 123.287C194.997 122.596 194.301 122.423 193.43 122.423H189.251C191.167 119.657 192.211 116.373 192.211 112.743C192.211 106.866 188.729 102.545 184.898 98.7421L153.557 67.6286L187.162 34.268C190.296 31.1567 192.211 26.8354 192.211 21.9955C192.211 18.3656 191.167 15.0814 189.251 12.3157H193.43C194.301 12.3157 195.171 11.97 195.694 11.4515C196.913 10.2415 196.913 8.16728 195.694 6.78446L190.296 1.42604C189.077 0.216071 186.988 0.216071 185.595 1.42604C184.898 2.11745 184.724 2.80884 184.724 3.6731V7.82158C181.938 5.9202 178.63 4.88309 174.973 4.88309C170.098 4.88309 165.745 6.78446 162.611 9.89581L116.817 55.356C113.683 58.4674 111.768 62.7887 111.768 67.6286C111.768 72.4685 113.683 76.7898 116.817 79.9011L162.611 124.843Z" fill="#FF6000"/>
<path d="M288.5 79.3826C291.634 76.2713 293.549 71.9499 293.549 67.1101C293.549 62.2702 291.634 57.9488 288.5 54.8375L242.706 9.37725C239.572 6.2659 235.219 4.36453 230.343 4.36453C226.687 4.36453 223.379 5.40164 220.593 7.30302V3.15457C220.593 2.2903 220.244 1.42603 219.722 0.907476C218.503 -0.302492 216.414 -0.302492 215.021 0.907476L209.623 6.26589C208.404 7.47586 208.404 9.55011 209.623 10.9329C210.32 11.6243 211.016 11.7972 211.887 11.7972L216.065 11.7972C214.15 14.5628 213.106 17.847 213.106 21.4769C213.106 26.3168 215.021 30.6381 218.155 33.7495L251.76 67.1101L220.419 98.2235C216.24 102.372 213.106 106.52 213.106 112.225C213.106 115.855 214.15 119.139 216.065 121.904H211.887C211.016 121.904 210.145 122.25 209.623 122.769C208.404 123.979 208.404 126.053 209.623 127.436L215.021 132.794C216.24 134.004 218.329 134.004 219.722 132.794C220.419 132.103 220.593 131.411 220.593 130.547V126.398C223.379 128.3 226.687 129.337 230.343 129.337C235.219 129.337 239.572 127.436 242.706 124.324L288.5 79.3826Z" fill="#FF6000"/>
<path d="M122.911 30.4653V45.5035H150.422L165.745 30.4653" fill="#12181F"/>
<path d="M122.911 103.928V88.7166H150.422L165.745 103.928" fill="#12181F"/>
<path d="M282.928 30.4653V45.5035L255.069 45.5035L239.746 30.4653" fill="#12181F"/>
<path d="M283.973 103.928V88.7166L255.069 88.7166L239.746 103.928" fill="#12181F"/>
<path d="M419.658 66.6732C425.287 66.6732 429.833 68.1886 435.137 71.6523V56.0655C431.24 54.2253 425.936 52.3852 418.901 52.3852C402.231 52.3852 390 63.7506 390 80.4199C390 97.1974 402.231 108.671 418.901 108.671C425.936 108.671 431.24 106.831 435.137 104.991V89.2957C429.833 92.8677 425.287 94.2749 419.658 94.2749C412.19 94.2749 405.695 89.7287 405.695 80.4199C405.695 71.4358 412.19 66.6732 419.658 66.6732Z" fill="#12181F"/>
<path d="M450.641 107.047H465.795V71.7605C468.284 68.405 471.856 66.2402 475.969 66.2402C481.057 66.2402 485.062 69.8122 485.062 75.549V107.047H500.216V71.7605C500.216 59.2045 490.582 52.3852 480.624 52.3852C474.021 52.3852 469.15 54.8748 465.795 58.1221V28.572H450.641V107.047Z" fill="#12181F"/>
<path d="M523.635 43.6176C529.047 43.6176 533.16 39.8292 533.16 34.3088C533.16 28.6802 529.047 25 523.635 25C518.223 25 514.11 28.6802 514.11 34.3088C514.11 39.8292 518.223 43.6176 523.635 43.6176ZM516.166 107.047H531.32V54.1171H516.166V107.047Z" fill="#12181F"/>
<path d="M609.352 52.3852C600.585 52.3852 595.281 56.8231 592.575 59.9622C589.219 54.983 583.483 52.3852 577.313 52.3852C570.602 52.3852 566.164 54.983 563.241 58.3385V54.1171H548.304V107.047H563.458V71.7605C565.623 68.5133 568.653 66.2402 572.658 66.2402C577.746 66.2402 580.776 69.8122 580.776 75.549V107.047H595.93V71.7605V71.4358C598.095 68.405 601.126 66.2402 604.914 66.2402C610.002 66.2402 613.141 69.8122 613.141 75.549V107.047H628.295V71.7605C628.295 59.2045 619.311 52.3852 609.352 52.3852Z" fill="#12181F"/>
<path d="M651.635 43.6176C657.047 43.6176 661.161 39.8292 661.161 34.3088C661.161 28.6802 657.047 25 651.635 25C646.223 25 642.11 28.6802 642.11 34.3088C642.11 39.8292 646.223 43.6176 651.635 43.6176ZM644.167 107.047H659.32V54.1171H644.167V107.047Z" fill="#12181F"/>
<path d="M702.715 66.6732C708.344 66.6732 712.89 68.1886 718.194 71.6523V56.0655C714.297 54.2253 708.993 52.3852 701.958 52.3852C685.288 52.3852 673.057 63.7506 673.057 80.4199C673.057 97.1974 685.288 108.671 701.958 108.671C708.993 108.671 714.297 106.831 718.194 104.991V89.2957C712.89 92.8677 708.344 94.2749 702.715 94.2749C695.247 94.2749 688.752 89.7287 688.752 80.4199C688.752 71.4358 695.247 66.6732 702.715 66.6732Z" fill="#12181F"/>
<path d="M733.698 107.047H748.852V71.7605C751.341 68.405 754.913 66.2402 759.026 66.2402C764.114 66.2402 768.119 69.8122 768.119 75.549V107.047H783.273V71.7605C783.273 59.2045 773.639 52.3852 763.681 52.3852C757.078 52.3852 752.207 54.8748 748.852 58.1221V28.572H733.698V107.047Z" fill="#12181F"/>
<path d="M818.382 108.779C825.093 108.779 829.856 106.073 833.211 102.826V107.047H848.149V54.1171H832.995V89.404C830.505 92.7595 827.15 94.8161 823.036 94.8161C817.949 94.8161 814.161 91.3523 814.161 85.6155V54.1171H799.007V89.404C799.007 101.852 808.424 108.779 818.382 108.779Z" fill="#12181F"/>
<path d="M864.975 107.047H880.129V76.415C881.428 71.3276 886.732 67.5391 892.469 67.5391C894.525 67.5391 896.257 67.6474 897.989 68.0803V52.71C897.339 52.6017 895.175 52.3852 894.092 52.3852C887.381 52.3852 882.51 55.9572 879.912 61.8023V54.1171H864.975V107.047Z" fill="#12181F"/>
<path d="M912.01 107.047H927.163V76.415C928.462 71.3276 933.766 67.5391 939.503 67.5391C941.56 67.5391 943.292 67.6474 945.023 68.0803V52.71C944.374 52.6017 942.209 52.3852 941.127 52.3852C934.416 52.3852 929.545 55.9572 926.947 61.8023V54.1171H912.01V107.047Z" fill="#12181F"/>
<path d="M966.188 43.6176C971.6 43.6176 975.713 39.8292 975.713 34.3088C975.713 28.6802 971.6 25 966.188 25C960.776 25 956.663 28.6802 956.663 34.3088C956.663 39.8292 960.776 43.6176 966.188 43.6176ZM958.719 107.047H973.873V54.1171H958.719V107.047Z" fill="#12181F"/>
<path d="M1048.98 66.6732C1054.6 66.6732 1059.15 68.1886 1064.45 71.6523V56.0655C1060.56 54.2253 1055.25 52.3852 1048.22 52.3852C1031.55 52.3852 1019.32 63.7506 1019.32 80.4199C1019.32 97.1974 1031.55 108.671 1048.22 108.671C1055.25 108.671 1060.56 106.831 1064.45 104.991V89.2957C1059.15 92.8677 1054.6 94.2749 1048.98 94.2749C1041.51 94.2749 1035.01 89.7287 1035.01 80.4199C1035.01 71.4358 1041.51 66.6732 1048.98 66.6732Z" fill="#12181F"/>
<path d="M1105.5 108.671C1122.61 108.671 1134.4 96.3315 1134.4 80.4199C1134.4 64.6166 1122.61 52.3852 1105.5 52.3852C1088.4 52.3852 1076.71 64.6166 1076.71 80.4199C1076.71 96.3315 1088.4 108.671 1105.5 108.671ZM1105.5 94.3831C1098.25 94.3831 1092.41 89.1875 1092.41 80.4199C1092.41 71.8688 1098.25 66.5649 1105.5 66.5649C1112.86 66.5649 1118.71 71.8688 1118.71 80.4199C1118.71 89.1875 1112.86 94.3831 1105.5 94.3831Z" fill="#12181F"/>
<path d="M1184.93 28.572V57.9056C1181.14 54.4418 1176.38 52.3852 1170.1 52.3852C1154.84 52.3852 1145.2 65.1578 1145.2 80.4199C1145.2 95.8985 1154.84 108.671 1170.1 108.671C1176.38 108.671 1181.46 106.073 1184.93 103.042V107.047H1200.08V28.572H1184.93ZM1184.93 88.6463C1182.11 92.11 1178.11 94.3831 1173.67 94.3831C1166.31 94.3831 1160.9 89.1875 1160.9 80.4199C1160.9 71.977 1166.31 66.5649 1173.67 66.5649C1178.11 66.5649 1182.11 68.838 1184.93 72.3018V88.6463Z" fill="#12181F"/>
<path d="M1241.62 108.671C1252.23 108.671 1258.51 105.857 1263.38 102.718V89.6205C1256.45 94.1666 1250.39 96.115 1243.24 96.115C1236.64 96.115 1229.93 92.11 1229.61 84.8578H1267.06C1267.17 83.9919 1267.27 81.7188 1267.27 80.4199C1267.27 64.0754 1257.75 52.3852 1240.97 52.3852C1225.82 52.3852 1213.8 63.5342 1213.8 80.2034C1213.8 98.4963 1226.36 108.671 1241.62 108.671ZM1229.93 74.6831C1230.25 69.9204 1234.37 64.9413 1240.97 64.9413C1248.22 64.9413 1251.69 69.7039 1252.01 74.6831H1229.93Z" fill="#12181F"/>
</svg>
